<?xml version="1.0" encoding="utf-8"?>
<!-- Generator: Adobe Illustrator 23.0.0, SVG Export Plug-In . SVG Version: 6.00 Build 0)  -->
<svg version="1.1" id="Layer_1" xmlns="http://www.w3.org/2000/svg" xmlns:xlink="http://www.w3.org/1999/xlink" x="0px" y="0px"
	 viewBox="0 0 331.8 64" style="enable-background:new 0 0 331.8 64;" xml:space="preserve">
<style type="text/css">
	.st0{fill:#50A0FF;}
</style>
<g>
	<path class="st0" d="M22,37.4l6.9,1c-1.3,3.7-3.4,6.6-6,8.5c-2.7,2-5.8,3-9.4,3c-4.1,0-7.2-1.2-9.5-3.7c-2.3-2.4-3.4-6-3.4-10.6
		c0-3.8,0.8-7.2,2.3-10.4s3.7-5.5,6.4-7.2c2.7-1.7,5.7-2.5,8.9-2.5c3.6,0,6.5,1,8.7,2.9s3.5,4.5,3.9,7.9L24.1,27
		c-0.4-1.9-1.1-3.3-2.1-4.2c-1-0.9-2.4-1.3-4.1-1.3c-1.9,0-3.6,0.6-5.3,1.7s-2.9,2.9-3.9,5.4c-1,2.4-1.5,4.9-1.5,7.3
		c0,2.7,0.6,4.7,1.9,6.2c1.3,1.4,2.9,2.2,4.8,2.2c1.8,0,3.4-0.6,4.9-1.7S21.3,39.6,22,37.4z"/>
	<path class="st0" d="M38,49.4h-6.5l6.9-33.2H45L42.5,28c1.5-1.1,2.8-2,4.1-2.5c1.3-0.5,2.6-0.8,4.1-0.8c1.9,0,3.5,0.6,4.6,1.7
		S57,29,57,30.8c0,1-0.2,2.5-0.6,4.5l-2.9,14.1h-6.5l3-14.3c0.3-1.6,0.5-2.6,0.5-3c0-0.8-0.2-1.4-0.7-1.9s-1.2-0.7-2-0.7
		c-1.1,0-2.1,0.4-3.1,1.1c-1.3,1-2.3,2.2-3,3.7c-0.4,0.8-0.9,2.7-1.5,5.6L38,49.4z"/>
	<path class="st0" d="M68.9,32.1l-6.3-0.5c0.7-2.1,2-3.8,3.8-5c1.8-1.2,4.2-1.8,7.2-1.8c3.1,0,5.4,0.6,6.9,1.9
		c1.5,1.2,2.2,2.8,2.2,4.6c0,0.7-0.1,1.5-0.2,2.3s-0.6,3-1.3,6.4c-0.6,2.9-1,4.9-1,6c0,1,0.2,2.2,0.5,3.4h-6.3
		c-0.3-0.9-0.4-1.8-0.5-2.7c-1,1.1-2,1.9-3.3,2.4s-2.5,0.8-3.7,0.8c-2,0-3.6-0.7-4.9-2c-1.3-1.3-1.9-3-1.9-5c0-2.3,0.7-4.1,2.1-5.5
		c1.4-1.4,4-2.2,7.6-2.5c3.1-0.3,5.2-0.6,6.2-0.9c0.3-0.9,0.4-1.6,0.4-2.2c0-0.7-0.3-1.3-0.8-1.7c-0.6-0.5-1.4-0.7-2.5-0.7
		c-1.2,0-2.1,0.2-2.8,0.7C69.6,30.6,69.2,31.3,68.9,32.1z M75.1,38.1c-0.4,0.1-0.9,0.2-1.6,0.3c-3.3,0.4-5.4,1-6.4,1.7
		c-0.7,0.5-1.1,1.3-1.1,2.2c0,0.8,0.3,1.4,0.8,1.9c0.5,0.5,1.3,0.8,2.2,0.8c1,0,1.9-0.2,2.8-0.7c0.9-0.5,1.5-1.1,1.9-1.8
		c0.4-0.7,0.8-1.9,1.1-3.5L75.1,38.1z"/>
	<path class="st0" d="M90.7,25.3h6.2l-0.6,3.1c1.5-1.3,3-2.3,4.3-2.8s2.7-0.8,4.2-0.8c2,0,3.5,0.6,4.7,1.7s1.7,2.6,1.7,4.5
		c0,0.8-0.2,2.4-0.7,4.8l-2.8,13.6H101l2.9-13.6c0.4-2,0.6-3.3,0.6-3.6c0-0.8-0.2-1.5-0.7-2c-0.5-0.5-1.2-0.7-2-0.7
		c-1,0-2,0.4-3.2,1.2s-2.1,1.9-2.7,3.2c-0.5,0.9-1,2.8-1.6,5.7l-2.1,9.9h-6.5L90.7,25.3z"/>
	<path class="st0" d="M115.5,30.1l1-4.8h3.2l0.8-3.8l7.4-4.5l-1.7,8.3h4l-1,4.8h-4L123,40.2c-0.4,1.8-0.6,2.9-0.6,3.1
		c0,0.5,0.2,0.9,0.5,1.2c0.3,0.3,0.9,0.4,1.7,0.4c0.3,0,1-0.1,2.2-0.2l-1,4.8c-1.1,0.2-2.3,0.3-3.4,0.3c-2.3,0-4-0.4-5-1.3
		c-1-0.9-1.6-2.1-1.6-3.7c0-0.7,0.3-2.4,0.8-5.1l2-9.7H115.5z"/>
	<path class="st0" d="M138.5,32.1l-6.3-0.5c0.7-2.1,2-3.8,3.8-5c1.8-1.2,4.2-1.8,7.2-1.8c3.1,0,5.4,0.6,6.9,1.9
		c1.5,1.2,2.2,2.8,2.2,4.6c0,0.7-0.1,1.5-0.2,2.3c-0.1,0.8-0.6,3-1.3,6.4c-0.6,2.9-1,4.9-1,6c0,1,0.2,2.2,0.5,3.4h-6.3
		c-0.3-0.9-0.4-1.8-0.5-2.7c-1,1.1-2,1.9-3.3,2.4c-1.2,0.6-2.5,0.8-3.7,0.8c-2,0-3.6-0.7-4.9-2c-1.3-1.3-1.9-3-1.9-5
		c0-2.3,0.7-4.1,2.1-5.5s4-2.2,7.6-2.5c3.1-0.3,5.2-0.6,6.2-0.9c0.3-0.9,0.4-1.6,0.4-2.2c0-0.7-0.3-1.3-0.8-1.7
		c-0.6-0.5-1.4-0.7-2.5-0.7c-1.2,0-2.1,0.2-2.8,0.7C139.2,30.6,138.7,31.3,138.5,32.1z M144.6,38.1c-0.4,0.1-0.9,0.2-1.6,0.3
		c-3.3,0.4-5.4,1-6.4,1.7c-0.7,0.5-1.1,1.3-1.1,2.2c0,0.8,0.3,1.4,0.8,1.9s1.3,0.8,2.2,0.8c1,0,1.9-0.2,2.8-0.7s1.5-1.1,1.9-1.8
		s0.8-1.9,1.1-3.5L144.6,38.1z"/>
	<path class="st0" d="M156.7,30.1l1-4.8h3.2l0.8-3.8l7.4-4.5l-1.7,8.3h4l-1,4.8h-4l-2.1,10.1c-0.4,1.8-0.6,2.9-0.6,3.1
		c0,0.5,0.2,0.9,0.5,1.2c0.3,0.3,0.9,0.4,1.7,0.4c0.3,0,1-0.1,2.2-0.2l-1,4.8c-1.1,0.2-2.3,0.3-3.4,0.3c-2.3,0-4-0.4-5-1.3
		c-1-0.9-1.6-2.1-1.6-3.7c0-0.7,0.3-2.4,0.8-5.1l2-9.7H156.7z"/>
	<path class="st0" d="M183.4,49.4l6.9-33.2h11.3c2.5,0,4.2,0.1,5.2,0.2c1.6,0.2,3,0.7,4.1,1.4c1.1,0.7,2,1.6,2.6,2.7
		c0.6,1.1,0.9,2.4,0.9,3.8c0,1.8-0.5,3.4-1.5,4.8c-1,1.4-2.6,2.4-4.8,3.1c1.7,0.5,3,1.3,4,2.5s1.4,2.6,1.4,4.1c0,2-0.6,3.9-1.7,5.7
		c-1.1,1.8-2.7,3.1-4.7,3.9c-2,0.8-4.7,1.2-8.2,1.2H183.4z M191.3,44h6.6c2.8,0,4.6-0.2,5.6-0.5c0.9-0.4,1.7-0.9,2.3-1.8
		c0.6-0.8,0.8-1.7,0.8-2.6c0-1.1-0.4-2-1.2-2.7s-2.2-1.1-4.1-1.1h-8.1L191.3,44z M194.3,29.6h5.2c2.3,0,4-0.2,5-0.5
		c1-0.3,1.8-0.9,2.3-1.6c0.5-0.8,0.8-1.6,0.8-2.4c0-0.8-0.2-1.5-0.7-2.1s-1.2-0.9-2.1-1.1c-0.5-0.1-1.7-0.1-3.6-0.1H196L194.3,29.6z
		"/>
	<path class="st0" d="M217.8,39.4c0-4.5,1.3-8,3.8-10.7c2.5-2.6,5.8-4,9.9-4c3.5,0,6.3,1,8.3,2.9s3,4.6,3,7.9
		c0,3.9-1.2,7.3-3.7,10.1c-2.5,2.8-5.8,4.3-10,4.3c-2.3,0-4.3-0.5-6-1.4c-1.8-0.9-3.1-2.2-3.9-3.8C218.3,43.1,217.8,41.3,217.8,39.4
		z M236.3,34.7c0-1.5-0.4-2.8-1.3-3.7c-0.9-0.9-2.1-1.4-3.5-1.4c-1.4,0-2.6,0.4-3.7,1.3s-1.9,2.1-2.5,3.8s-0.9,3.2-0.9,4.6
		c0,1.7,0.5,3.1,1.4,4.1c0.9,1,2.1,1.5,3.5,1.5c1.8,0,3.3-0.8,4.5-2.3C235.5,40.4,236.3,37.8,236.3,34.7z"/>
	<path class="st0" d="M250.3,25.3h6.2l-0.6,3.1c1.5-1.3,3-2.3,4.3-2.8s2.7-0.8,4.2-0.8c2,0,3.5,0.6,4.7,1.7c1.1,1.1,1.7,2.6,1.7,4.5
		c0,0.8-0.2,2.4-0.7,4.8l-2.8,13.6h-6.5l2.9-13.6c0.4-2,0.6-3.3,0.6-3.6c0-0.8-0.2-1.5-0.7-2s-1.2-0.7-2-0.7c-1,0-2,0.4-3.2,1.2
		s-2.1,1.9-2.7,3.2c-0.5,0.9-1,2.8-1.6,5.7l-2.1,9.9h-6.5L250.3,25.3z"/>
	<path class="st0" d="M278.2,25.3h6.1l-1,4.7c2.3-3.5,4.7-5.2,7.4-5.2c0.9,0,1.9,0.2,3,0.7l-2.5,5.3c-0.6-0.2-1.2-0.3-1.9-0.3
		c-1.1,0-2.3,0.4-3.4,1.3c-1.2,0.8-2.1,2-2.7,3.4c-0.6,1.4-1.3,3.6-1.9,6.7l-1.6,7.5h-6.5L278.2,25.3z"/>
	<path class="st0" d="M300.7,32.1l-6.3-0.5c0.7-2.1,2-3.8,3.8-5c1.8-1.2,4.2-1.8,7.2-1.8c3.1,0,5.4,0.6,6.9,1.9
		c1.5,1.2,2.2,2.8,2.2,4.6c0,0.7-0.1,1.5-0.2,2.3s-0.6,3-1.3,6.4c-0.6,2.9-1,4.9-1,6c0,1,0.2,2.2,0.5,3.4h-6.3
		c-0.3-0.9-0.4-1.8-0.5-2.7c-1,1.1-2,1.9-3.3,2.4s-2.5,0.8-3.7,0.8c-2,0-3.6-0.7-4.9-2c-1.3-1.3-1.9-3-1.9-5c0-2.3,0.7-4.1,2.1-5.5
		c1.4-1.4,4-2.2,7.6-2.5c3.1-0.3,5.2-0.6,6.2-0.9c0.3-0.9,0.4-1.6,0.4-2.2c0-0.7-0.3-1.3-0.8-1.7c-0.6-0.5-1.4-0.7-2.5-0.7
		c-1.2,0-2.1,0.2-2.8,0.7C301.4,30.6,301,31.3,300.7,32.1z M306.9,38.1c-0.4,0.1-0.9,0.2-1.6,0.3c-3.3,0.4-5.4,1-6.4,1.7
		c-0.7,0.5-1.1,1.3-1.1,2.2c0,0.8,0.3,1.4,0.8,1.9c0.5,0.5,1.3,0.8,2.2,0.8c1,0,1.9-0.2,2.8-0.7c0.9-0.5,1.5-1.1,1.9-1.8
		s0.8-1.9,1.1-3.5L306.9,38.1z"/>
	<path class="st0" d="M322.4,25.3h6.5l-5,24h-6.5L322.4,25.3z M324.3,16.2h6.5l-1.2,5.9H323L324.3,16.2z"/>
	<path class="st0" d="M333.9,30.3l1.2-5.8c5.6-2.4,9.9-5.3,13-8.5h4l-7,33.4h-6.5l4.8-23c-1.4,0.9-2.9,1.7-4.7,2.4
		C336.8,29.5,335.3,30,333.9,30.3z"/>
</g>
</svg>
