<?xml version="1.0" encoding="utf-8"?>
<!-- Generator: Adobe Illustrator 23.0.0, SVG Export Plug-In . SVG Version: 6.00 Build 0)  -->
<svg version="1.1" id="Layer_1" xmlns="http://www.w3.org/2000/svg" xmlns:xlink="http://www.w3.org/1999/xlink" x="0px" y="0px"
	 viewBox="0 0 40 31" style="enable-background:new 0 0 40 31;" xml:space="preserve">
<g>
	<path d="M16.3,25.7H30c0.6,0,1,0.2,1.4,0.6c0.5,0.5,0.7,1.1,0.7,1.9c0,1-0.3,1.7-1,2.2c-0.3,0.2-0.6,0.3-1,0.3H13.1
		c-2.1,0-3.2-0.9-3.2-2.8c0-1.3,0.6-2.6,1.8-3.9c1.5-1.8,4.3-4.4,8.6-7.8c1.9-1.6,3.3-2.8,4.1-3.8c0.9-1.1,1.4-2.3,1.4-3.3
		c0-1.3-0.6-2.4-1.7-3.1c-0.9-0.6-1.9-0.9-3.1-0.9c-2.3,0-4.1,1.1-5.3,3.2c-0.5,1-1.3,1.5-2.3,1.5c-0.5,0-0.9-0.1-1.4-0.4
		c-0.8-0.4-1.2-1.1-1.2-2c0-0.9,0.4-1.9,1.1-2.8c0.8-1,1.8-1.9,3.1-2.6c1.8-1,3.8-1.5,6-1.5c2.4,0,4.5,0.6,6.4,1.7
		c2.7,1.7,4,4,4,6.9c0,2.1-0.7,3.9-2.2,5.6c-0.9,1-2.6,2.5-5.3,4.6C20.6,21.6,18.1,23.8,16.3,25.7z"/>
</g>
</svg>
